<?xml version="1.0" encoding="UTF-8" standalone="no"?>
<!-- Created with Inkscape (http://www.inkscape.org/) -->
<svg
   xmlns:dc="http://purl.org/dc/elements/1.1/"
   xmlns:cc="http://creativecommons.org/ns#"
   xmlns:rdf="http://www.w3.org/1999/02/22-rdf-syntax-ns#"
   xmlns:svg="http://www.w3.org/2000/svg"
   xmlns="http://www.w3.org/2000/svg"
   xmlns:sodipodi="http://sodipodi.sourceforge.net/DTD/sodipodi-0.dtd"
   xmlns:inkscape="http://www.inkscape.org/namespaces/inkscape"
   width="646.3327"
   height="646.3327"
   id="svg2"
   sodipodi:version="0.32"
   inkscape:version="0.46"
   sodipodi:docname="qmotion.svg"
   inkscape:output_extension="org.inkscape.output.svg.inkscape"
   version="1.0">
  <sodipodi:namedview
     id="base"
     pagecolor="#ffffff"
     bordercolor="#666666"
     borderopacity="1.0"
     inkscape:pageopacity="0.0"
     inkscape:pageshadow="2"
     inkscape:zoom="0.68716611"
     inkscape:cx="79.860109"
     inkscape:cy="318.69408"
     inkscape:document-units="px"
     inkscape:current-layer="layer1"
     showgrid="false"
     showborder="true"
     inkscape:showpageshadow="false"
     inkscape:window-width="1680"
     inkscape:window-height="975"
     inkscape:window-x="0"
     inkscape:window-y="25"
     borderlayer="true" />
  <defs
     id="defs4">
    <inkscape:perspective
       sodipodi:type="inkscape:persp3d"
       inkscape:vp_x="0 : 526.18109 : 1"
       inkscape:vp_y="0 : 1000 : 0"
       inkscape:vp_z="744.09448 : 526.18109 : 1"
       inkscape:persp3d-origin="372.04724 : 350.78739 : 1"
       id="perspective10" />
  </defs>
  <metadata
     id="metadata7">
    <rdf:RDF>
      <cc:Work
         rdf:about="">
        <dc:format>image/svg+xml</dc:format>
        <dc:type
           rdf:resource="http://purl.org/dc/dcmitype/StillImage" />
      </cc:Work>
    </rdf:RDF>
  </metadata>
  <g
     transform="translate(65.086006,-21.684973)"
     inkscape:label="Calque 1"
     inkscape:groupmode="layer"
     id="layer1">
    <rect
       style="opacity:1;fill:none;fill-opacity:1;stroke:none;stroke-width:5;stroke-linecap:round;stroke-linejoin:round;stroke-miterlimit:4;stroke-dasharray:none;stroke-dashoffset:0;stroke-opacity:1"
       id="rect6281"
       width="646.3327"
       height="646.3327"
       x="-65.086006"
       y="21.684973" />
    <path
       style="fill:#cc0000;fill-rule:evenodd;stroke:#cc0000;stroke-width:1.00000012px;stroke-linecap:butt;stroke-linejoin:miter;stroke-opacity:1"
       d="M -20.371335,395.92761 C -6.907385,402.23364 5.5197455,410.51895 19.322772,416.12794 C 36.777499,421.38762 53.524176,429.01548 71.950049,431.03064 C 87.137125,433.78688 102.32554,436.53294 117.87879,436.49195 C 136.78723,438.19769 155.7048,437.0138 174.62092,436.11215 C 234.33807,432.32019 292.89353,420.02522 352.22553,413.39829 C 374.77039,410.5587 397.53036,409.38369 420.26052,409.0754 C 437.71677,410.15252 455.37156,409.76686 472.40473,413.91008 C 484.21108,415.74731 495.89923,417.94977 506.80519,422.62243 C 517.89013,426.43663 529.18671,429.84139 538.75317,436.42411 C 541.38535,437.80618 553.5129,445.05292 548.84814,441.92813 C 537.76038,434.61183 527.28658,426.36144 514.31218,421.91556 C 502.56318,416.69457 490.92688,411.19862 477.9861,408.88549 C 464.37608,405.11374 450.62901,401.96001 436.40173,400.97175 C 415.50369,397.80235 394.25585,398.04674 373.14086,397.84551 C 317.09762,398.93005 261.49545,406.29221 205.52902,408.49011 C 182.43419,409.70541 159.26013,409.2726 136.20661,407.86897 C 118.71508,405.47553 100.88649,404.59427 84.060433,399.25827 C 72.57934,396.66436 61.276814,393.62179 50.857757,388.4026 C 39.938836,383.96833 29.000641,379.57646 19.730224,372.54945 C 14.389925,369.11985 9.533534,364.93291 3.7093288,362.26067 C -28.908805,347.29495 -44.850823,384.4623 -20.371335,395.92761 z"
       id="path0891"
       sodipodi:nodetypes="ccccccccccccccccccccss" />
    <path
       style="font-size:137.45248413px;font-style:normal;font-variant:normal;font-weight:normal;font-stretch:normal;text-align:start;line-height:125%;writing-mode:lr-tb;text-anchor:start;fill:#000000;fill-opacity:1;stroke:none;stroke-width:1px;stroke-linecap:butt;stroke-linejoin:miter;stroke-opacity:1;font-family:Nimbus Sans L;-inkscape-font-specification:Nimbus Sans L"
       d="M 94.898365,348.82663 L 81.977831,338.24279 C 91.462043,327.79641 96.135437,314.87585 96.135437,299.06883 C 96.135437,268.0046 76.617155,246.83689 47.752163,246.83689 C 18.88717,246.83689 -0.6311118,268.0046 -0.6311118,299.34374 C -0.6311118,330.68287 18.88717,351.85059 47.752163,351.85059 C 57.648732,351.85059 65.895899,349.65134 74.005587,344.84051 L 88.438098,356.79888 L 94.898365,348.82663 M 60.260339,320.51142 L 53.937524,328.20876 L 64.109008,336.73081 C 58.198557,339.47986 53.662613,340.57948 47.61471,340.57948 C 26.309596,340.57948 12.151969,324.08516 12.151969,299.34374 C 12.151969,274.60231 26.447049,258.10799 47.752163,258.10799 C 69.057276,258.10799 83.352356,274.60231 83.352356,299.20628 C 83.352356,312.1268 79.916036,322.16086 72.49361,330.54545 L 60.260339,320.51142 M 165.32129,348.68918 L 193.49905,264.70571 L 193.49905,348.68918 L 205.59487,348.68918 L 205.59487,248.48632 L 187.8635,248.48632 L 158.72357,335.76864 L 129.03383,248.48632 L 111.30246,248.48632 L 111.30246,348.68918 L 123.39828,348.68918 L 123.39828,264.70571 L 151.85094,348.68918 L 165.32129,348.68918 M 327.0513,276.66408 L 315.23039,276.66408 L 315.23039,256.87092 L 303.82183,256.87092 L 303.82183,276.66408 L 294.0627,276.66408 L 294.0627,286.01085 L 303.82183,286.01085 L 303.82183,340.44203 C 303.82183,347.727 308.77013,351.85059 317.70453,351.85059 C 320.45358,351.85059 323.20263,351.57568 327.0513,350.88842 L 327.0513,341.26674 C 325.53932,341.6791 323.75244,341.81655 321.5532,341.81655 C 316.60492,341.81655 315.23039,340.44202 315.23039,335.35629 L 315.23039,286.01085 L 327.0513,286.01085 L 327.0513,276.66408 M 350.87785,276.66408 L 339.4693,276.66408 L 339.4693,348.68918 L 350.87785,348.68918 L 350.87785,276.66408 M 350.87785,248.48632 L 339.33185,248.48632 L 339.33185,262.91883 L 350.87785,262.91883 L 350.87785,248.48632 M 446.99793,276.66408 L 446.99793,348.68918 L 458.54394,348.68918 L 458.54394,308.96541 C 458.54394,294.25801 466.24129,284.63632 478.06219,284.63632 C 487.13404,284.63632 492.90706,290.13443 492.90706,298.79393 L 492.90706,348.68918 L 504.31561,348.68918 L 504.31561,294.25799 C 504.31561,282.29964 495.38119,274.60229 481.4985,274.60229 C 470.77722,274.60229 463.90458,278.72587 457.58177,288.7599 L 457.58177,276.66408 L 446.99793,276.66408"
       id="text3178"
       sodipodi:nodetypes="ccssssccccccsssscccccccccccccccccccccccccsccsccccccccccccccccccsccccsccc" />
    <g
       transform="matrix(0.7763225,0,0,0.7763225,107.57133,147.48722)"
       id="g3183">
      <path
         transform="matrix(0.502282,0,0,0.502282,109.33781,111.95701)"
         d="M 251.17986,199.2887 A 94.322723,94.322723 0 1 1 62.534409,199.2887 A 94.322723,94.322723 0 1 1 251.17986,199.2887 z"
         sodipodi:ry="94.322723"
         sodipodi:rx="94.322723"
         sodipodi:cy="199.2887"
         sodipodi:cx="156.85713"
         id="path3185"
         style="opacity:1;fill:none;fill-opacity:1;stroke:#cc0000;stroke-width:12.82272053;stroke-linecap:round;stroke-linejoin:round;stroke-miterlimit:4;stroke-dasharray:none;stroke-dashoffset:0;stroke-opacity:1"
         sodipodi:type="arc" />
      <path
         sodipodi:type="arc"
         style="opacity:1;fill:none;fill-opacity:1;stroke:#cc0000;stroke-width:20.65132523;stroke-linecap:round;stroke-linejoin:round;stroke-miterlimit:4;stroke-dasharray:none;stroke-dashoffset:0;stroke-opacity:1"
         id="path3187"
         sodipodi:cx="156.85713"
         sodipodi:cy="199.2887"
         sodipodi:rx="94.322723"
         sodipodi:ry="94.322723"
         d="M 251.17986,199.2887 A 94.322723,94.322723 0 1 1 62.534409,199.2887 A 94.322723,94.322723 0 1 1 251.17986,199.2887 z"
         transform="matrix(0.3118745,0,0,0.3118745,139.20459,149.90309)" />
      <g
         id="g3189"
         transform="matrix(0.5942029,0,0,0.5942029,221.56664,63.447242)"
         style="stroke-width:8.41463375;stroke-miterlimit:4;stroke-dasharray:none">
        <path
           id="path3191"
           d="M -56.280964,160.2047 L -56.280964,339.99111"
           style="fill:none;fill-rule:evenodd;stroke:#cc0000;stroke-width:10.83909512;stroke-linecap:round;stroke-linejoin:miter;stroke-miterlimit:4;stroke-dasharray:none;stroke-opacity:1" />
        <path
           id="path3193"
           d="M -146.17417,250.09791 L 33.612242,250.09791"
           style="fill:none;fill-rule:evenodd;stroke:#cc0000;stroke-width:10.83909512;stroke-linecap:round;stroke-linejoin:miter;stroke-miterlimit:4;stroke-dasharray:none;stroke-opacity:1" />
      </g>
    </g>
    <g
       transform="matrix(0.7763225,0,0,0.7763225,254.6971,147.31115)"
       id="g3195">
      <path
         transform="matrix(0.502282,0,0,0.502282,109.33781,111.95701)"
         d="M 251.17986,199.2887 A 94.322723,94.322723 0 1 1 62.534409,199.2887 A 94.322723,94.322723 0 1 1 251.17986,199.2887 z"
         sodipodi:ry="94.322723"
         sodipodi:rx="94.322723"
         sodipodi:cy="199.2887"
         sodipodi:cx="156.85713"
         id="path3197"
         style="opacity:1;fill:none;fill-opacity:1;stroke:#cc0000;stroke-width:12.82272053;stroke-linecap:round;stroke-linejoin:round;stroke-miterlimit:4;stroke-dasharray:none;stroke-dashoffset:0;stroke-opacity:1"
         sodipodi:type="arc" />
      <path
         sodipodi:type="arc"
         style="opacity:1;fill:none;fill-opacity:1;stroke:#cc0000;stroke-width:20.65132523;stroke-linecap:round;stroke-linejoin:round;stroke-miterlimit:4;stroke-dasharray:none;stroke-dashoffset:0;stroke-opacity:1"
         id="path3199"
         sodipodi:cx="156.85713"
         sodipodi:cy="199.2887"
         sodipodi:rx="94.322723"
         sodipodi:ry="94.322723"
         d="M 251.17986,199.2887 A 94.322723,94.322723 0 1 1 62.534409,199.2887 A 94.322723,94.322723 0 1 1 251.17986,199.2887 z"
         transform="matrix(0.3118745,0,0,0.3118745,139.20459,149.90309)" />
      <g
         id="g3201"
         transform="matrix(0.5942029,0,0,0.5942029,221.56664,63.447242)"
         style="stroke-width:8.41463375;stroke-miterlimit:4;stroke-dasharray:none">
        <path
           id="path3203"
           d="M -56.280964,160.2047 L -56.280964,339.99111"
           style="fill:none;fill-rule:evenodd;stroke:#cc0000;stroke-width:10.83909512;stroke-linecap:round;stroke-linejoin:miter;stroke-miterlimit:4;stroke-dasharray:none;stroke-opacity:1" />
        <path
           id="path3205"
           d="M -146.17417,250.09791 L 33.612242,250.09791"
           style="fill:none;fill-rule:evenodd;stroke:#cc0000;stroke-width:10.83909512;stroke-linecap:round;stroke-linejoin:miter;stroke-miterlimit:4;stroke-dasharray:none;stroke-opacity:1" />
      </g>
    </g>
  </g>
</svg>
